<mxfile host="app.diagrams.net" modified="2023-02-16T15:55:47.853Z" agent="5.0 (Windows)" etag="TuodITikcNa9V6Mzay49" version="20.8.20" type="github">
  <diagram id="C5RBs43oDa-KdzZeNtuy" name="Page-1">
    <mxGraphModel dx="1687" dy="920" grid="1" gridSize="10" guides="1" tooltips="1" connect="1" arrows="1" fold="1" page="1" pageScale="1" pageWidth="827" pageHeight="1169" math="0" shadow="0">
      <root>
        <mxCell id="WIyWlLk6GJQsqaUBKTNV-0" />
        <mxCell id="WIyWlLk6GJQsqaUBKTNV-1" parent="WIyWlLk6GJQsqaUBKTNV-0" />
        <mxCell id="ZcvKQKHk8RBQZfHfIR_T-13" style="edgeStyle=orthogonalEdgeStyle;rounded=0;orthogonalLoop=1;jettySize=auto;html=1;entryX=0.5;entryY=0;entryDx=0;entryDy=0;" edge="1" parent="WIyWlLk6GJQsqaUBKTNV-1" source="ZcvKQKHk8RBQZfHfIR_T-0" target="ZcvKQKHk8RBQZfHfIR_T-3">
          <mxGeometry relative="1" as="geometry" />
        </mxCell>
        <mxCell id="ZcvKQKHk8RBQZfHfIR_T-0" value="START" style="ellipse;whiteSpace=wrap;html=1;" vertex="1" parent="WIyWlLk6GJQsqaUBKTNV-1">
          <mxGeometry x="301" y="20" width="106" height="80" as="geometry" />
        </mxCell>
        <mxCell id="ZcvKQKHk8RBQZfHfIR_T-11" style="edgeStyle=orthogonalEdgeStyle;rounded=0;orthogonalLoop=1;jettySize=auto;html=1;entryX=0.5;entryY=0;entryDx=0;entryDy=0;" edge="1" parent="WIyWlLk6GJQsqaUBKTNV-1" source="ZcvKQKHk8RBQZfHfIR_T-3" target="ZcvKQKHk8RBQZfHfIR_T-4">
          <mxGeometry relative="1" as="geometry" />
        </mxCell>
        <mxCell id="ZcvKQKHk8RBQZfHfIR_T-3" value="&lt;div&gt;pobrać wartość a&lt;/div&gt;&lt;div&gt;ustaw b=2&lt;br&gt;&lt;/div&gt;" style="rounded=1;whiteSpace=wrap;html=1;" vertex="1" parent="WIyWlLk6GJQsqaUBKTNV-1">
          <mxGeometry x="294" y="170" width="120" height="60" as="geometry" />
        </mxCell>
        <mxCell id="ZcvKQKHk8RBQZfHfIR_T-10" style="edgeStyle=orthogonalEdgeStyle;rounded=0;orthogonalLoop=1;jettySize=auto;html=1;entryX=0.5;entryY=0;entryDx=0;entryDy=0;" edge="1" parent="WIyWlLk6GJQsqaUBKTNV-1" source="ZcvKQKHk8RBQZfHfIR_T-4" target="ZcvKQKHk8RBQZfHfIR_T-5">
          <mxGeometry relative="1" as="geometry" />
        </mxCell>
        <mxCell id="ZcvKQKHk8RBQZfHfIR_T-4" value="wyświetl a+b" style="rounded=1;whiteSpace=wrap;html=1;" vertex="1" parent="WIyWlLk6GJQsqaUBKTNV-1">
          <mxGeometry x="294" y="290" width="120" height="60" as="geometry" />
        </mxCell>
        <mxCell id="ZcvKQKHk8RBQZfHfIR_T-5" value="STOP" style="ellipse;whiteSpace=wrap;html=1;" vertex="1" parent="WIyWlLk6GJQsqaUBKTNV-1">
          <mxGeometry x="294" y="410" width="120" height="80" as="geometry" />
        </mxCell>
      </root>
    </mxGraphModel>
  </diagram>
</mxfile>
